<svg id="Layer_1" data-name="Layer 1" xmlns="http://www.w3.org/2000/svg" width="113.6mm" height="153.42mm" viewBox="0 0 322.03 434.89">
  <path id="top" d="M160.48,159.81A161.06,161.06,0,0,0,3,287.06H317.93A161.06,161.06,0,0,0,160.48,159.81Z"/>
  <path id="bottom" d="M3.56,287A161.17,161.17,0,0,0,43.75,431.11c.51.54,1,1.12,1.55,1.62,7.26,6.48,64.09-3.71,115-3.78,49.94-.08,110,9.49,116,4.2.38-.33.7-.72,1.05-1.09a161.15,161.15,0,0,0,41.1-145Z" style="fill: #f29797"/>
  <rect id="lid" x="123.3" width="74.32" height="164.13" style="fill: #bfbfbf"/>
</svg>
